<?xml version="1.0" encoding="UTF-8" standalone="no"?>
<!-- Created with Inkscape (http://www.inkscape.org/) -->

<svg
   xmlns:dc="http://purl.org/dc/elements/1.1/"
   xmlns:cc="http://creativecommons.org/ns#"
   xmlns:rdf="http://www.w3.org/1999/02/22-rdf-syntax-ns#"
   xmlns:svg="http://www.w3.org/2000/svg"
   xmlns="http://www.w3.org/2000/svg"
   xmlns:sodipodi="http://sodipodi.sourceforge.net/DTD/sodipodi-0.dtd"
   xmlns:inkscape="http://www.inkscape.org/namespaces/inkscape"
   width="600"
   height="600"
   id="svg2"
   version="1.1"
   inkscape:version="0.48.3.1 r9886"
   sodipodi:docname="logo.svg"
   inkscape:export-filename="/home/users/bpradelle/nfs/rest/logo.png"
   inkscape:export-xdpi="22.5"
   inkscape:export-ydpi="22.5">
  <defs
     id="defs4">
    <filter
       inkscape:collect="always"
       id="filter3979"
       x="-0.22414122"
       width="1.4482824"
       y="-1.0758779"
       height="3.1517557">
      <feGaussianBlur
         inkscape:collect="always"
         stdDeviation="22.414122"
         id="feGaussianBlur3981" />
    </filter>
  </defs>
  <sodipodi:namedview
     id="base"
     pagecolor="#ffffff"
     bordercolor="#666666"
     borderopacity="1.0"
     inkscape:pageopacity="0.0"
     inkscape:pageshadow="2"
     inkscape:zoom="0.7"
     inkscape:cx="306.09007"
     inkscape:cy="214.07671"
     inkscape:document-units="px"
     inkscape:current-layer="layer1"
     showgrid="true"
     inkscape:window-width="1920"
     inkscape:window-height="1114"
     inkscape:window-x="0"
     inkscape:window-y="27"
     inkscape:window-maximized="1">
    <inkscape:grid
       type="xygrid"
       id="grid2985"
       empspacing="5"
       visible="true"
       enabled="true"
       snapvisiblegridlinesonly="true" />
  </sodipodi:namedview>
  <metadata
     id="metadata7">
    <rdf:RDF>
      <cc:Work
         rdf:about="">
        <dc:format>image/svg+xml</dc:format>
        <dc:type
           rdf:resource="http://purl.org/dc/dcmitype/StillImage" />
        <dc:title></dc:title>
      </cc:Work>
    </rdf:RDF>
  </metadata>
  <g
     inkscape:label="Calque 1"
     inkscape:groupmode="layer"
     id="layer1"
     transform="translate(0,-452.36218)">
    <text
       xml:space="preserve"
       style="font-size:88.97675322999999992px;font-style:normal;font-variant:normal;font-weight:bold;font-stretch:normal;line-height:125%;letter-spacing:0px;word-spacing:0px;fill:#551d00;fill-opacity:1;stroke:none;font-family:Arial;-inkscape-font-specification:Arial Bold"
       x="747.75452"
       y="315.94989"
       id="text2987"
       sodipodi:linespacing="125%"
       transform="scale(0.32493026,3.0775835)"><tspan
         sodipodi:role="line"
         id="tspan2989"
         x="747.75452"
         y="315.94989">FoREST</tspan></text>
    <path
       id="path3173"
       d="m 236.03376,808.03146 c -5.15951,4.26222 -11.19835,7.24094 -17.01583,10.46926 -11.05607,4.93984 -23.12939,6.49025 -35.07247,7.5611 -12.90038,0.66533 -26.04404,-0.22517 -38.08114,-5.29699 -2.27003,-0.95648 -4.41177,-2.19268 -6.61766,-3.28902 -9.75301,-6.02514 -18.07251,-14.25261 -23.42372,-24.46562 -0.98585,-1.88155 -1.75644,-3.86826 -2.63467,-5.80239 -2.7219,-7.65781 -3.84203,-15.82369 -2.15022,-23.85797 1.14601,-5.4423 2.08868,-6.59608 4.5152,-11.61756 3.49899,-6.4731 8.75899,-11.38183 14.05347,-16.33274 -1.22886,-2.9973 4.42292,-5.31447 5.65178,-2.31716 l 0,0 c -5.2574,4.86513 -10.49174,9.68477 -13.99114,16.05822 -2.4327,4.92841 -3.36773,6.05264 -4.54518,11.40573 -1.74269,7.92287 -0.72734,15.99595 1.93339,23.57682 0.86192,1.91659 1.61757,3.88463 2.58577,5.74979 5.25626,10.12576 13.47366,18.28003 23.13514,24.22509 2.18481,1.08001 4.30606,2.29945 6.55442,3.24001 11.99656,5.01856 25.09834,5.82567 37.93322,5.07956 12.05578,-1.17541 24.24299,-2.86979 35.32361,-8.06684 -0.8112,0.52297 -3.31256,1.17017 -2.4336,1.56891 0.90123,0.40884 1.71223,-0.99342 2.55357,-1.5145 1.81387,-1.12339 3.5188,-2.40027 5.18277,-3.73262 -1.40065,-3.47011 5.14264,-6.11119 6.54329,-2.64108 z"
       inkscape:connector-curvature="0"
       style="stroke:#2c8e00;stroke-opacity:1;fill:#246b09;fill-opacity:1" />
    <path
       id="path3175"
       d="m 185.95763,744.80181 c -5.70682,1.07469 -11.54472,1.12824 -17.32973,1.34607 -12.44122,0.36482 -24.95507,-0.14694 -37.21296,-2.43945 -2.76444,-0.51702 -5.49483,-1.20192 -8.24225,-1.80288 -17.08845,-4.05606 -32.280455,-11.93112 -47.004389,-21.25671 -8.486416,-5.87213 -17.200316,-11.92197 -23.624979,-20.14188 -0.996978,-1.27557 -1.839856,-2.6644 -2.759784,-3.9966 -4.181268,-7.23077 -4.758596,-14.6181 -1.876079,-22.49653 0.654997,-1.79022 1.586705,-3.4667 2.380057,-5.20006 7.716472,-13.25675 19.954879,-21.72742 32.759038,-29.54885 14.53758,-8.91256 30.491146,-14.9241 46.595396,-20.28898 8.26739,-2.66828 16.71946,-4.83291 25.41418,-5.31268 5.24885,-0.13992 10.22641,1.16128 14.99142,3.24324 3.46913,1.63344 6.29378,4.18793 8.9165,6.92918 1.42519,1.66216 0.74568,0.82079 2.04199,2.52134 1.87378,3.15316 -4.07189,6.68641 -5.94567,3.53324 l 0,0 c -1.25724,-1.66229 -0.59726,-0.83958 -1.98352,-2.46527 -2.55754,-2.67979 -5.32352,-5.16203 -8.727,-6.72577 -4.67096,-2.02089 -9.54318,-3.25956 -14.6805,-3.07397 -8.5446,0.52794 -16.86514,2.59421 -24.99965,5.21243 -12.27174,4.0527 -24.36444,8.59332 -35.996932,14.25279 -12.704795,7.69329 -24.876552,16.00042 -32.591161,29.07997 -0.786863,1.69132 -1.709592,3.32584 -2.360588,5.07396 -2.853814,7.66335 -2.354607,14.89342 1.650395,21.98313 0.892042,1.32025 1.707092,2.69592 2.676126,3.96073 6.28598,8.20466 14.870302,14.28337 23.221948,20.17965 5.71877,3.67069 7.849805,5.1972 13.930911,8.43586 10.404191,5.54105 21.420521,9.94333 32.897601,12.6807 2.74999,0.58411 5.48363,1.25129 8.24996,1.75232 12.33545,2.23416 24.92584,2.68703 37.4281,2.13407 5.93721,-0.32716 11.97091,-0.46607 17.77627,-1.8767 2.28447,2.96703 -3.31022,7.27469 -5.5947,4.30765 z"
       inkscape:connector-curvature="0"
       style="stroke:#2c8e00;stroke-opacity:1;fill:#246b09;fill-opacity:1" />
    <path
       id="path3179"
       d="m 232.34662,611.80233 c -0.37475,-3.62423 -0.35235,-7.24134 -0.0891,-10.8699 1.00159,-8.80068 5.02107,-16.73122 9.11131,-24.44399 8.29176,-15.2105 19.01106,-28.86235 30.24854,-41.97236 12.3263,-14.05454 26.40022,-26.3284 41.34426,-37.49281 11.10375,-7.70782 22.35789,-15.62146 35.00111,-20.59776 5.73337,-1.79256 11.94585,-2.38436 17.48012,0.4225 1.03314,0.52399 1.96341,1.22994 2.94512,1.84491 7.52233,6.08155 11.27639,15.05331 14.5941,23.865 3.88106,10.39151 4.9217,21.35226 5.17834,32.3447 0.0733,7.03683 -0.49593,14.0437 -1.24561,21.03215 1.56139,3.15038 -4.37904,6.09455 -5.94042,2.94416 l 0,0 c 0.80879,-6.98813 1.45729,-13.99333 1.44467,-21.0375 -0.15066,-10.93515 -1.13109,-21.84874 -5.02499,-32.17647 -3.30611,-8.67232 -7.06412,-17.49856 -14.60729,-23.35519 -0.96466,-0.5771 -1.88143,-1.24311 -2.894,-1.73129 -5.44873,-2.627 -11.50728,-1.91676 -17.07271,-0.10976 -7.44934,3.01183 -0.565,0.0919 -8.24336,3.78268 -0.2915,0.14011 1.09483,-0.68908 0.81894,-0.52031 -5.7231,3.5011 -11.37193,7.11924 -16.80793,11.05768 -15.05748,11.12779 -29.26592,23.36042 -41.63974,37.47123 -11.12661,12.97957 -21.71152,26.52174 -29.82219,41.63845 -3.96587,7.58278 -7.83285,15.37512 -8.80637,23.99783 -0.2333,3.55044 -0.25704,7.09572 0.27201,10.6257 1.73967,3.31182 -4.50515,6.59216 -6.24481,3.28035 z"
       inkscape:connector-curvature="0"
       style="stroke:#2c8e00;stroke-opacity:1;fill:#246b09;fill-opacity:1" />
    <path
       id="path3181"
       d="m 353.88288,580.69779 c 5.57542,-5.44006 12.69792,-8.81003 19.41982,-12.56715 8.24114,-3.95028 16.96837,-6.99377 25.97351,-8.64154 2.2694,-0.41526 4.56412,-0.67764 6.84619,-1.01645 17.95021,-1.85006 35.96788,0.0139 53.79819,2.15269 12.90305,1.79761 25.6559,4.60457 38.05035,8.62945 7.47348,2.42689 9.94531,3.52846 17.20767,6.39128 12.10809,5.20481 23.93309,11.52637 33.63987,20.5796 1.72671,1.61046 3.29341,3.38437 4.94012,5.07655 6.96912,8.07157 13.04934,17.45986 14.81758,28.18562 0.32773,1.98793 0.32208,4.01663 0.48312,6.02495 -0.19573,2.07362 -0.20628,4.17314 -0.58719,6.22084 -1.84197,9.90194 -7.62458,18.80935 -13.98552,26.40142 -1.87462,2.23745 -3.93673,4.31088 -5.90509,6.46632 -13.79227,13.88751 -30.65037,23.44921 -48.36972,31.44563 -8.95672,3.90283 -18.29383,6.79865 -27.65089,9.55471 -2.02956,-2.63228 2.93391,-6.45926 4.96347,-3.82698 l 0,0 c 9.28045,-2.70525 18.53378,-5.57202 27.3992,-9.46728 2.51265,-1.14315 5.01263,-2.31457 7.53794,-3.42944 0.7884,-0.34806 1.64535,-0.54449 2.40122,-0.95848 10.32396,-5.65426 19.89706,-12.69177 28.22444,-21.01422 1.96256,-2.13405 4.01903,-4.1854 5.88766,-6.40215 6.28119,-7.45139 11.99215,-16.23694 13.85949,-25.96549 0.38594,-2.01068 0.40869,-4.07433 0.61304,-6.11149 -0.14268,-1.97825 -0.11939,-3.97552 -0.42802,-5.93475 -1.67498,-10.63289 -7.66104,-19.95683 -14.53647,-27.96683 -1.62867,-1.68035 -3.17868,-3.4407 -4.88602,-5.04105 -9.61161,-9.00931 -21.33243,-15.33344 -33.33206,-20.54246 -7.14091,-2.82759 -9.77359,-3.99681 -17.12229,-6.38948 -12.35874,-4.02388 -25.08523,-6.79735 -37.95583,-8.57146 -17.909,-2.09611 -36.01509,-3.88629 -54.02038,-1.7894 -2.29649,0.36791 -4.60626,0.66083 -6.88948,1.10372 -9.04946,1.75536 -17.81906,4.86766 -26.07471,8.93991 0.60968,-0.39931 2.48521,-1.51515 1.82905,-1.19794 -3.59281,1.73691 -6.74704,4.26307 -9.64631,6.96815 1.42828,3.44818 -5.07367,6.14138 -6.50195,2.6932 z"
       inkscape:connector-curvature="0"
       style="stroke:#2c8e00;stroke-opacity:1;fill:#246b09;fill-opacity:1" />
    <path
       id="path3183"
       d="m 429.97029,661.74725 c 2.90687,-1.28998 5.93989,-2.20096 8.99005,-3.07862 5.08067,-1.60319 10.22613,-1.55887 15.41607,-0.66476 9.74055,2.23814 17.82432,8.42511 25.62359,14.35831 8.3272,6.79026 16.1118,14.32251 22.68313,22.84935 4.75476,6.16969 5.85903,8.39045 9.91549,15.04236 5.51347,10.19473 9.83577,21.21183 11.01067,32.83279 0.76195,7.53643 0.20575,8.75025 -0.67401,16.22676 -0.79299,2.65967 -1.36896,5.39395 -2.37896,7.97902 -4.54157,11.62399 -13.21921,21.64896 -22.74866,29.50429 -2.76149,2.27635 -5.76224,4.24581 -8.64336,6.36871 -11.50083,7.28435 -23.69753,13.35495 -36.68916,17.46989 -11.36704,3.60037 -22.98087,5.76487 -34.70111,7.79326 -15.89411,2.52411 -31.94737,3.80976 -48.02481,4.26026 -4.19891,0.12579 -8.39163,-0.11114 -12.58021,-0.35987 -2.05606,-2.86898 3.35374,-6.74591 5.4098,-3.87694 l 0,0 c 4.10015,0.29119 8.20465,0.5575 12.31899,0.4778 15.84915,-0.29259 31.68336,-1.4199 47.35592,-3.87433 11.68125,-2.00824 23.23922,-4.16523 34.55297,-7.80178 3.87262,-1.24476 7.65094,-2.76581 11.47216,-4.16041 1.97214,-0.71975 4.03173,-1.24051 5.90787,-2.18258 3.33926,-1.67676 6.45589,-3.76435 9.68383,-5.64652 2.86759,-2.09441 5.85405,-4.03508 8.60275,-6.28324 9.45774,-7.73547 18.07822,-17.64725 22.64352,-29.11488 1.01529,-2.55029 1.60341,-5.25055 2.40512,-7.87583 0.9126,-7.37982 1.47389,-8.63202 0.77197,-16.08572 -1.08883,-11.56231 -5.31243,-22.5501 -10.8115,-32.67993 -4.05625,-6.62966 -5.1332,-8.81224 -9.90922,-14.94202 -6.60079,-8.47176 -14.44431,-15.91782 -22.82589,-22.59758 -7.88533,-5.81134 -16.08666,-11.80372 -25.87528,-13.81424 -5.18351,-0.76953 -10.29936,-0.68069 -15.32992,0.97493 -3.09953,0.92059 -6.16889,1.91784 -9.10919,3.2778 -2.32087,-2.93665 3.21651,-7.31292 5.53738,-4.37628 z"
       inkscape:connector-curvature="0"
       style="stroke:#2c8e00;stroke-opacity:1;fill:#246b09;fill-opacity:1" />
    <path
       id="path3185"
       d="m 248.33176,714.75784 c 2.7486,-3.00526 6.1586,-5.28602 9.65977,-7.32268 10.50251,-6.10942 7.99215,-4.74518 16.61269,-8.80883 14.06847,-6.04485 28.99355,-10.04244 44.10609,-12.43819 3.54957,-0.56269 7.12608,-0.93977 10.68912,-1.40965 9.32962,-0.63055 13.01731,-1.11691 22.43585,-0.78408 3.98011,0.14065 7.94444,0.57431 11.91666,0.86147 1.70586,2.38221 -2.78608,5.59881 -4.49194,3.2166 l 0,0 c -3.98449,-0.26126 -7.96218,-0.66568 -11.95348,-0.78377 -9.50503,-0.28122 -13.04917,0.2111 -22.45838,0.89015 -3.56931,0.48729 -7.15271,0.8807 -10.70795,1.46186 -15.23443,2.49033 -30.26436,6.62776 -44.39913,12.86124 -5.46639,2.64353 -10.26936,4.37699 -14.93055,9.57229 1.42319,3.43588 -5.05556,6.11947 -6.47875,2.68359 z"
       inkscape:connector-curvature="0"
       style="stroke:#2c8e00;stroke-opacity:1;fill:#246b09;fill-opacity:1" />
    <path
       style="fill:#246b09;fill-opacity:1;stroke:#2c8e00;stroke-opacity:1"
       id="path3955"
       d="m 174.50199,213.92132 c -3.74683,-0.008 -7.42636,-0.82302 -11.00857,-1.85116 -6.41887,-1.99599 -11.47738,-6.20265 -15.98488,-11.02973 -7.08549,-8.54543 -11.60599,-18.70112 -14.99826,-29.17334 -3.11937,-10.88049 -3.07497,-22.18127 -0.44179,-33.15653 0.58194,-2.42553 1.3699,-4.79696 2.05484,-7.19543 5.79304,-16.80138 17.60967,-29.98714 29.90285,-42.370893 13.78728,-13.219619 29.1831,-24.542181 45.4659,-34.462866 10.44507,-6.10344 21.04316,-12.453858 32.85615,-15.553824 4.9851,-1.308192 6.58656,-1.36303 11.58774,-2.016369 9.64714,-0.622176 16.54068,0.383852 24.75438,5.511427 0.84892,0.803225 1.69783,1.606449 2.54675,2.409674 2.25312,3.651532 -4.63228,7.900053 -6.8854,4.248522 l 0,0 c -0.81474,-0.761247 -1.62948,-1.522493 -2.44423,-2.283739 -7.9168,-4.877835 -14.94714,-5.913579 -24.20918,-5.227046 -4.93191,0.664189 -6.49111,0.718823 -11.40483,2.042794 -6.99685,1.885254 -13.47724,5.002536 -19.9358,8.216424 -16.35804,9.857498 -31.83591,21.121886 -45.66228,34.350376 -12.20422,12.249116 -23.95853,25.28671 -29.77299,41.90666 -0.68034,2.37201 -1.4613,4.71743 -2.041,7.11602 -2.62006,10.84083 -2.71274,21.99844 0.38007,32.75295 3.38419,10.35509 7.9131,20.38357 15.07463,28.7251 4.52102,4.6725 9.58509,8.70158 15.94332,10.53242 3.61721,0.95041 7.32244,1.69568 11.08452,1.52307 2.64395,3.63909 -4.21798,8.62458 -6.86194,4.98549 z"
       inkscape:connector-curvature="0"
       transform="translate(0,452.36218)" />
  </g>
</svg>
